<?xml version="1.0" standalone="no"?>
<!DOCTYPE svg PUBLIC "-//W3C//DTD SVG 20010904//EN"
 "http://www.w3.org/TR/2001/REC-SVG-20010904/DTD/svg10.dtd">
<svg version="1.0" xmlns="http://www.w3.org/2000/svg"
 width="185.000000pt" height="185.000000pt" viewBox="0 0 185.000000 185.000000"
 preserveAspectRatio="xMidYMid meet">
<metadata>
Created by potrace 1.11, written by Peter Selinger 2001-2013
</metadata>
<g transform="translate(0.000000,185.000000) scale(0.100000,-0.100000)"
fill="#000000" stroke="none">
<path d="M746 1405 c-16 -15 -26 -35 -26 -52 0 -18 72 -153 203 -381 206 -361
228 -392 274 -375 33 11 63 46 63 72 0 24 -11 47 -82 171 -236 413 -322 558
-340 573 -28 24 -60 21 -92 -8z"/>
<path d="M1075 1405 c-39 -38 -32 -68 45 -199 39 -65 70 -120 70 -121 0 -2 26
-48 58 -102 32 -54 61 -105 65 -113 4 -8 11 -22 17 -30 15 -24 84 -143 98
-170 27 -51 60 -79 90 -74 6 1 16 2 22 3 20 2 50 46 50 73 0 18 -54 121 -148
285 -82 142 -173 300 -202 351 -29 51 -62 100 -74 108 -30 21 -64 17 -91 -11z"/>
<path d="M235 1165 c-14 -13 -25 -35 -25 -47 0 -19 39 -96 100 -198 5 -8 41
-71 81 -140 87 -153 93 -160 136 -160 40 0 73 30 73 67 0 30 -239 457 -272
486 -28 24 -65 21 -93 -8z"/>
<path d="M571 1156 c-58 -41 -56 -46 124 -357 64 -112 116 -191 129 -196 50
-23 106 13 106 67 0 18 -45 106 -120 235 -66 114 -120 211 -120 215 0 12 -44
47 -67 52 -13 4 -33 -3 -52 -16z"/>
<path d="M183 568 c-11 -18 -11 -148 0 -155 13 -8 25 15 21 43 -2 23 1 24 51
24 43 0 52 -3 52 -17 0 -42 4 -54 16 -50 14 4 18 155 4 164 -13 8 -20 -4 -22
-34 -1 -26 -4 -28 -52 -31 l-51 -3 3 31 c3 33 -9 48 -22 28z"/>
<path d="M411 568 c-12 -4 -28 -22 -35 -40 -16 -44 -13 -113 5 -113 8 0 14 5
14 12 0 19 12 25 54 27 37 2 43 -1 40 -20 -1 -9 24 -24 32 -18 8 4 10 120 3
145 -5 18 -72 23 -113 7z m84 -53 c0 -29 -2 -30 -45 -31 -57 -2 -63 2 -49 29
16 30 27 35 63 34 27 -2 31 -5 31 -32z"/>
<path d="M561 497 c1 -65 4 -84 15 -84 10 0 14 15 14 56 l0 55 60 -59 c33 -32
63 -56 67 -52 8 9 8 155 0 163 -15 15 -27 -12 -27 -59 l0 -51 -55 57 c-30 31
-59 57 -65 57 -6 0 -10 -34 -9 -83z"/>
<path d="M759 576 c-6 -6 -4 -135 2 -147 7 -15 30 -17 107 -10 29 2 51 39 48
81 -5 59 -24 74 -96 76 -33 1 -60 1 -61 0z m122 -47 c9 -13 5 -67 -5 -76 -10
-11 -85 -10 -89 0 -3 10 -2 53 2 89 2 13 83 1 92 -13z"/>
<path d="M939 558 c-3 -60 10 -88 42 -88 11 0 20 -7 20 -15 1 -8 2 -20 3 -27
0 -6 7 -13 14 -15 10 -4 17 22 13 50 0 4 8 7 18 7 31 0 51 28 51 69 0 27 -4
38 -15 38 -10 0 -15 -11 -15 -33 0 -39 -12 -49 -59 -45 -43 2 -44 3 -45 42 -2
38 -25 53 -27 17z"/>
<path d="M1214 566 c-11 -9 -16 -29 -16 -71 -1 -73 11 -84 95 -82 l62 2 0 45
0 45 -52 3 c-43 2 -53 0 -53 -12 0 -12 11 -16 41 -16 33 0 40 -3 37 -17 -2
-14 -14 -18 -51 -19 -26 -1 -47 2 -48 7 -1 5 -1 18 -1 29 0 70 -4 67 67 65 55
-1 65 1 63 14 -4 20 -119 25 -144 7z"/>
<path d="M1388 573 c-3 -8 -3 -31 0 -95 3 -37 42 -61 103 -64 43 -1 50 1 53
20 8 41 4 146 -4 146 -16 0 -26 -34 -24 -86 2 -50 2 -50 -30 -49 -54 2 -67 16
-70 75 -3 48 -17 76 -28 53z"/>
<path d="M1574 566 c-15 -39 14 -96 48 -96 15 0 19 -6 16 -27 -2 -19 2 -27 15
-29 13 -2 17 5 17 27 0 22 5 29 19 29 27 0 43 24 44 67 2 28 -2 38 -13 38 -10
0 -15 -10 -15 -32 0 -39 -2 -41 -48 -46 -31 -4 -40 0 -49 17 -6 11 -11 22 -10
24 1 1 2 11 2 22 0 23 -18 27 -26 6z"/>
</g>
</svg>
